<?xml version="1.0" encoding="UTF-8"?>
<svg width="220px" height="220px" viewBox="0 0 220 220" version="1.1" xmlns="http://www.w3.org/2000/svg" xmlns:xlink="http://www.w3.org/1999/xlink">
    <!-- Generator: sketchtool 52.5 (67469) - http://www.bohemiancoding.com/sketch -->
    <title>773E4217-56E3-41AE-91F4-9D6AB6D4E8DB</title>
    <desc>Created with sketchtool.</desc>
    <g id="Page-1" stroke="none" stroke-width="1" fill="none" fill-rule="evenodd" opacity="0.449999988">
        <g id="Credit" transform="translate(-944.000000, -273.000000)" fill="#FFFFFF" fill-rule="nonzero">
            <g id="352776" transform="translate(944.000000, 273.000000)">
                <path d="M214.160117,75.4986719 C221.946484,83.2846094 221.946484,95.954375 214.160547,103.741172 L107.073828,210.827891 L155.827891,210.82875 C158.35875,210.82875 160.410938,212.880508 160.410938,215.411797 C160.410938,217.942656 158.35875,219.994844 155.827891,219.994844 L89.6332422,219.993984 C89.6272266,219.993984 89.6216406,219.994414 89.615625,219.994414 C89.6096094,219.994414 89.6040234,219.993984 89.5980078,219.993984 L64.1652344,219.993984 C61.634375,219.993984 59.5821875,217.941797 59.5821875,215.410937 C59.5821875,212.879648 61.634375,210.827891 64.1652344,210.827891 L72.1591406,210.827891 L14.4263281,153.095078 C14.4254688,153.094219 14.4246094,153.093359 14.42375,153.0925 C14.4228906,153.091641 14.4224609,153.090781 14.4216016,153.090352 L5.83128906,144.500039 C2.07109375,140.740273 5.68434189e-13,135.724961 5.68434189e-13,130.378789 C5.68434189e-13,125.032617 2.07109375,120.018164 5.83128906,116.257539 L116.253242,5.83515625 C120.013867,2.07496094 125.02918,0.0047265625 130.374922,0.0047265625 C135.721094,0.0047265625 140.735977,2.07582031 144.496602,5.83601563 L214.160117,75.4986719 Z M207.678711,97.2597656 C211.890508,93.0471094 211.890938,86.1923047 207.678711,81.9796484 L169.290859,43.5930859 L63.2448438,149.639531 C62.3498047,150.534141 61.1767578,150.981875 60.0041406,150.981875 C58.8315234,150.981875 57.6584766,150.53457 56.7634375,149.639961 C54.9737891,147.849453 54.9737891,144.947344 56.7634375,143.158125 L162.809453,37.11125 L138.015195,12.3174219 C135.986211,10.2884375 133.272734,9.17125 130.374922,9.17125 C127.477109,9.17125 124.763633,10.2884375 122.734648,12.3169922 L12.3126953,122.738945 C10.2837109,124.76793 9.16652344,127.481406 9.16652344,130.379219 C9.16652344,133.277031 10.2837109,135.990078 12.3122656,138.018633 L17.6644531,143.37082 L123.70918,37.3252344 C125.499688,35.5351563 128.400938,35.5351563 130.191016,37.3248047 C131.980664,39.1144531 131.980664,42.0165625 130.191016,43.8062109 L24.1462891,149.851797 L81.9766406,207.682578 C84.0008984,209.707266 86.7070703,210.823164 89.5975781,210.827891 L89.6323828,210.827891 C92.52375,210.823594 95.2307813,209.707266 97.2558984,207.682578 L207.678711,97.2597656 Z M112.922305,132.37125 C114.711953,134.160898 114.711953,137.062578 112.921875,138.853086 L76.8564844,174.918047 C75.9614453,175.812656 74.7883984,176.260391 73.6157812,176.260391 C72.4431641,176.260391 71.2701172,175.813086 70.3750781,174.918047 C68.5854297,173.127539 68.5854297,170.225859 70.3750781,168.436211 L106.440469,132.37125 C108.231406,130.582031 111.132656,130.581602 112.922305,132.37125 Z M98.1298828,166.607461 C99.9208203,164.817383 102.821641,164.817383 104.611289,166.607461 C106.400937,168.397539 106.400937,171.299648 104.611289,173.089297 L89.8192969,187.881289 C88.9242578,188.775898 87.7520703,189.223633 86.5785937,189.223633 C85.4059766,189.223633 84.2329297,188.775898 83.3378906,187.881289 C81.5482422,186.091211 81.5482422,183.189102 83.3378906,181.399453 L98.1298828,166.607461 Z M111.741953,152.99668 C113.531602,151.207031 116.434141,151.207461 118.22293,152.997109 C120.012578,154.787187 120.012578,157.688867 118.2225,159.478516 L116.278164,161.422422 C115.383555,162.317461 114.210508,162.765195 113.037891,162.765195 C111.865273,162.765195 110.691797,162.317461 109.797188,161.422422 C108.007539,159.631914 108.007539,156.730234 109.797617,154.940586 L111.741953,152.99668 Z M174.91418,70.3798047 L187.876992,83.3430469 C189.666641,85.1326953 189.666641,88.0348047 187.876992,89.8244531 L168.432344,109.268672 C167.537305,110.163281 166.365117,110.611016 165.191641,110.611016 C164.019023,110.611016 162.845977,110.163711 161.950938,109.268672 L148.987266,96.3062891 C148.127891,95.4469141 147.644922,94.2811719 147.644922,93.0655859 C147.644922,91.85 148.127891,90.6846875 148.987266,89.8248828 L168.432773,70.3798047 C169.292578,69.5204297 170.457891,69.0374609 171.673477,69.0374609 C172.889063,69.0374609 174.054805,69.5204297 174.91418,70.3798047 Z M165.191211,99.5469922 L178.154453,86.5841797 L171.673047,80.1023437 L158.709375,93.0655859 L165.191211,99.5469922 Z M137.645664,34.4549219 C136.472617,34.4549219 135.30043,34.0080469 134.405391,33.1130078 C132.615313,31.3237891 132.614883,28.4216797 134.404102,26.6316016 L136.348438,24.6864063 C138.137656,22.8963281 141.040195,22.8958984 142.829844,24.6851172 C144.619922,26.4743359 144.620352,29.3764453 142.831133,31.1665234 L140.886797,33.1117188 C139.992188,34.0071875 138.819141,34.4549219 137.645664,34.4549219 Z M46.0689453,153.852617 C47.8590234,152.062539 50.7602734,152.062539 52.5503516,153.852617 C54.34,155.642266 54.34,158.544375 52.5503516,160.334453 L50.6060156,162.278789 C49.7109766,163.173398 48.5379297,163.620703 47.3653125,163.620703 C46.1926953,163.620703 45.0196484,163.173398 44.1246094,162.278789 C42.3349609,160.488281 42.3349609,157.586172 44.1246094,155.796953 L46.0689453,153.852617 Z" id="Combined-Shape"></path>
            </g>
        </g>
    </g>
</svg>