<?xml version="1.0" encoding="UTF-8"?>
<svg width="333px" height="120px" viewBox="0 0 333 120" version="1.1" xmlns="http://www.w3.org/2000/svg" xmlns:xlink="http://www.w3.org/1999/xlink">
    <!-- Generator: sketchtool 52.5 (67469) - http://www.bohemiancoding.com/sketch -->
    <title>614F5021-7D84-4CDE-99D9-D6F367197C34</title>
    <desc>Created with sketchtool.</desc>
    <g id="Page-1" stroke="none" stroke-width="1" fill="none" fill-rule="evenodd" opacity="0.449999988">
        <g id="warranty" transform="translate(-888.000000, -323.000000)" fill="#FFFFFF">
            <path d="M1220.60045,408.61609 L1220.60045,415.439302 L1212.83639,415.439302 L1212.83639,432.616466 L1220.57876,432.616466 L1220.57876,439.656288 L1206.98082,440.197812 L1206.98082,437.966731 C1206.20008,436.797031 1204.85909,435.854788 1202.95783,435.139971 C1201.05657,434.425155 1198.32761,433.916127 1194.77088,433.612872 L1181.25969,432.638127 L1181.25969,411.172087 L1206.98082,411.172087 L1206.98082,407.814634 L1220.60045,408.61609 Z M1206.98082,429.367318 L1206.98082,418.753433 L1187.13695,418.753433 L1187.13695,425.46834 L1195.03112,426.053186 C1200.14935,426.486408 1204.13254,427.591108 1206.98082,429.367318 Z M1212.83639,378.83223 L1212.83639,386.391915 L1199.65052,386.391915 L1199.65052,397.590647 L1212.83639,397.590647 L1212.83639,405.193654 L1181.25969,405.193654 L1181.25969,397.590647 L1193.79495,397.590647 L1193.79495,386.391915 L1181.25969,386.391915 L1181.25969,378.83223 L1212.83639,378.83223 Z M1199.45533,354.463617 L1199.45533,366.420483 L1206.98082,366.420483 L1206.98082,352.297518 L1212.83639,352.297518 L1212.83639,374.02349 L1181.25969,374.02349 L1181.25969,352.254196 L1187.13695,352.254196 L1187.13695,366.420483 L1193.79495,366.420483 L1193.79495,354.463617 L1199.45533,354.463617 Z M1181.25969,330.701512 L1181.25969,323.098505 L1212.83639,323.098505 L1212.83639,330.701512 L1192.92746,330.701512 L1212.83639,342.030209 L1212.83639,349.633216 L1181.25969,349.633216 L1181.25969,342.030209 L1201.19032,342.030209 L1181.25969,330.701512 Z M1172.75827,328.297142 C1174.73905,328.297142 1176.3439,329.026388 1177.57285,330.484902 C1178.8018,331.943416 1179.41627,333.885665 1179.41627,336.311708 C1179.41627,338.737751 1178.8018,340.68 1177.57285,342.138514 C1176.3439,343.597028 1174.73905,344.326274 1172.75827,344.326274 L1172.75827,339.365907 C1173.62576,339.365907 1174.30168,339.095148 1174.78603,338.55362 C1175.27038,338.012093 1175.51256,337.264796 1175.51256,336.311708 C1175.51256,335.35862 1175.27761,334.618543 1174.80772,334.091457 C1174.33782,333.56437 1173.65468,333.30083 1172.75827,333.30083 L1172.75827,328.297142 Z M915.806064,371.420998 L928.437961,371.420998 C938.448194,371.420998 943.453236,366.509926 943.453236,356.687635 C943.453236,352.864906 942.261559,349.745711 939.878171,347.329959 C937.494782,344.914206 934.131606,343.706348 929.788542,343.706348 C926.239941,343.706348 923.154822,344.741655 920.533095,346.8123 C917.911367,348.882945 916.600523,351.457939 916.600523,354.53736 L889.827256,354.53736 C889.827256,348.431612 891.522084,342.989613 894.911793,338.211202 C898.301502,333.43279 903.002003,329.70303 909.01344,327.02181 C915.024876,324.34059 921.63206,323 928.835191,323 C941.705491,323 951.8215,325.946643 959.183523,331.840018 C966.545547,337.733392 970.226503,345.830024 970.226503,356.130156 C970.226503,361.120942 968.703805,365.832916 965.658364,370.266221 C962.612923,374.699525 958.177238,378.296553 952.351176,381.057414 C958.495023,383.287339 963.314693,386.671997 966.81033,391.211488 C970.305966,395.750979 972.053759,401.365529 972.053759,408.055305 C972.053759,418.408531 968.081504,426.690987 960.136874,432.902923 C952.192245,439.114858 941.758455,442.220779 928.835191,442.220779 C921.261311,442.220779 914.230419,440.774004 907.742305,437.88041 C901.254191,434.986816 896.341836,430.97832 893.005091,425.854801 C889.668347,420.731281 888,414.904361 888,408.373865 L914.932159,408.373865 C914.932159,411.931127 916.362171,415.010502 919.222237,417.612081 C922.082304,420.213661 925.60437,421.514431 929.788542,421.514431 C934.502355,421.514431 938.262757,420.200388 941.069859,417.572261 C943.876961,414.944135 945.280492,411.586024 945.280492,407.497827 C945.280492,401.657546 943.823998,397.516318 940.910967,395.074018 C937.997936,392.631719 933.972718,391.410587 928.835191,391.410587 L915.806064,391.410587 L915.806064,371.420998 Z M1050.56733,323 L1050.56733,344.104547 L1049.37313,344.104547 C1039.3418,344.104547 1031.10191,346.50699 1024.65321,351.311949 C1018.2045,356.116907 1014.23714,362.79331 1012.75102,371.341358 C1018.80166,365.39489 1026.44446,362.421701 1035.67964,362.421701 C1045.71097,362.421701 1053.69875,366.085095 1059.64324,373.411993 C1065.58773,380.738891 1068.55993,390.348664 1068.55993,402.2416 C1068.55993,409.621592 1066.82172,416.390907 1063.34526,422.549749 C1059.86879,428.708591 1055.01243,433.52675 1048.77603,437.004372 C1042.53962,440.481994 1035.62661,442.220779 1028.03677,442.220779 C1019.81002,442.220779 1012.45914,440.349263 1005.98389,436.606173 C999.508649,432.863084 994.466525,427.513998 990.857372,420.558754 C987.248219,413.60351 985.390595,405.586517 985.284443,396.507535 L985.284443,385.756162 C985.284443,373.810132 987.845311,363.07214 992.967124,353.541863 C998.088937,344.011586 1005.40002,336.538793 1014.90058,331.12326 C1024.40115,325.707726 1034.93653,323 1046.50705,323 L1050.56733,323 Z M1026.79317,383.779221 C1023.23253,383.779221 1020.25651,384.594389 1017.86503,386.22475 C1015.47355,387.855112 1013.69325,389.853589 1012.52409,392.220243 L1012.52409,400.187936 C1012.52409,414.703411 1017.59926,421.961039 1027.74976,421.961039 C1031.84184,421.961039 1035.25629,420.146632 1037.99321,416.517763 C1040.73012,412.888895 1042.09856,408.339729 1042.09856,402.87013 C1042.09856,397.242754 1040.70355,392.654145 1037.91349,389.104164 C1035.12343,385.554184 1031.4167,383.779221 1026.79317,383.779221 Z M1081.68536,384.647133 L1088.76856,325.337662 L1156.4967,325.337662 L1156.4967,346.223524 L1110.57527,346.223524 L1107.94892,369.261746 C1109.859,368.145702 1112.36595,367.162535 1115.46984,366.312216 C1118.57373,365.461897 1121.61126,365.036744 1124.5825,365.036744 C1136.09608,365.036744 1144.94336,368.451256 1151.12461,375.280382 C1157.30586,382.109509 1160.39644,391.688743 1160.39644,404.018372 C1160.39644,411.458665 1158.7384,418.194687 1155.42228,424.226639 C1152.10616,430.258591 1147.45039,434.895419 1141.45485,438.137261 C1135.4593,441.379103 1128.37617,443 1120.20524,443 C1112.9363,443 1106.11846,441.498678 1099.7515,438.495988 C1093.38455,435.493298 1088.39718,431.374626 1084.78923,426.139848 C1081.18129,420.90507 1079.40388,414.992783 1079.45694,408.402809 L1106.35719,408.402809 C1106.62247,412.654405 1107.97543,416.029059 1110.4161,418.526872 C1112.85676,421.024684 1116.06672,422.273572 1120.04607,422.273572 C1129.06592,422.273572 1133.57578,415.577408 1133.57578,402.18488 C1133.57578,389.802106 1128.05783,383.610812 1117.02178,383.610812 C1110.76094,383.610812 1106.09191,385.63029 1103.01455,389.669306 L1081.68536,384.647133 Z" id="Combined-Shape"></path>
        </g>
    </g>
</svg>