<svg xmlns="http://www.w3.org/2000/svg" xmlns:xlink="http://www.w3.org/1999/xlink" width="16" height="16" version="1.1" style=""><rect id="backgroundrect" width="100%" height="100%" x="0" y="0" fill="none" stroke="none"/>
    <!-- Generator: Sketch 53.2 (72643) - https://sketchapp.com -->
    <title>Shape</title>
    <desc>Created with Sketch.</desc>
    
<g class="currentLayer" style=""><title>Layer 1</title><g id="desktop" stroke="none" stroke-width="1" fill="#30dfaa" fill-rule="evenodd" class="selected" fill-opacity="1">
        <g id="Product--FAQ" fill="#30dfaa" fill-rule="nonzero">
            <path d="M7.874667000000045,0 C3.5259999999999536,0 0,3.5259999999999536 0,7.874667000000045 C0,12.223333000000025 3.5259999999999536,15.75 7.874667000000045,15.75 C12.223333000000025,15.75 15.75,12.223333000000025 15.75,7.874667000000045 C15.75,3.5259999999999536 12.223333000000025,0 7.874667000000045,0 zM9.51400000000001,12.204666999999972 C9.108666999999969,12.364667000000054 8.785999999999945,12.48599999999999 8.543999999999983,12.57000000000005 C8.302667000000042,12.653999999999996 8.022000000000048,12.696000000000026 7.7026670000000195,12.696000000000026 C7.211999999999989,12.696000000000026 6.830000000000041,12.576000000000022 6.557999999999993,12.336667000000034 C6.2859999999999445,12.097333000000049 6.1506669999999986,11.793999999999983 6.1506669999999986,11.425333000000023 C6.1506669999999986,11.282000000000039 6.1606669999999895,11.135332999999946 6.180666999999971,10.98599999999999 C6.201332999999977,10.836667000000034 6.234000000000037,10.668667000000028 6.278667000000041,10.480000000000018 L6.7859999999999445,8.687999999999988 C6.8306669999999485,8.515999999999963 6.869332999999983,8.352666999999997 6.899999999999977,8.200666999999953 C6.930666999999971,8.04733299999998 6.945333000000005,7.90666699999997 6.945333000000005,7.778667000000041 C6.945333000000005,7.550666999999976 6.898000000000025,7.390667000000008 6.803999999999974,7.300666999999976 C6.708666999999991,7.210666999999944 6.529332999999951,7.166666999999961 6.261999999999944,7.166666999999961 C6.131333000000041,7.166666999999961 5.996667000000002,7.1860000000000355 5.8586669999999685,7.22666700000002 C5.72199999999998,7.26866700000005 5.6033330000000205,7.306666999999948 5.505999999999972,7.344000000000051 L5.639999999999986,6.79200000000003 C5.97199999999998,6.65666699999997 6.289999999999964,6.540666999999985 6.59333300000003,6.444666999999981 C6.8966669999999795,6.347333000000049 7.183332999999948,6.299333000000047 7.453333000000043,6.299333000000047 C7.940666999999962,6.299333000000047 8.316667000000052,6.418000000000006 8.581332999999972,6.652666999999951 C8.844666999999959,6.888000000000034 8.977333000000044,7.19399999999996 8.977333000000044,7.57000000000005 C8.977333000000044,7.648000000000025 8.967999999999961,7.785333000000037 8.950000000000045,7.98133299999995 C8.932000000000016,8.177999999999997 8.898000000000025,8.35733300000004 8.848666999999978,8.522000000000048 L8.344000000000051,10.308667000000014 C8.302667000000042,10.451999999999998 8.265999999999963,10.615999999999985 8.232666999999992,10.799333000000047 C8.200000000000045,10.982666999999992 8.183999999999969,11.122666999999979 8.183999999999969,11.21666700000003 C8.183999999999969,11.45399999999995 8.236667000000011,11.615999999999985 8.34333300000003,11.701999999999998 C8.448667,11.788000000000011 8.633332999999993,11.831332999999972 8.894667000000027,11.831332999999972 C9.018000000000029,11.831332999999972 9.155999999999949,11.809333000000038 9.312000000000012,11.766666999999984 C9.46666700000003,11.724000000000046 9.578666999999996,11.686000000000035 9.649332999999956,11.653332999999975 L9.51400000000001,12.204666999999972 zM9.424667,4.9526670000000195 C9.189333000000033,5.171333000000004 8.905999999999949,5.280666999999994 8.574666999999977,5.280666999999994 C8.244000000000028,5.280666999999994 7.958666999999991,5.171333000000004 7.721332999999959,4.9526670000000195 C7.485332999999969,4.734000000000037 7.3659999999999854,4.467999999999961 7.3659999999999854,4.157332999999994 C7.3659999999999854,3.8473330000000487 7.48599999999999,3.5806669999999485 7.721332999999959,3.3600000000000136 C7.958666999999991,3.138667000000055 8.244000000000028,3.0286670000000413 8.574666999999977,3.0286670000000413 C8.905999999999949,3.0286670000000413 9.190000000000055,3.138667000000055 9.424667,3.3600000000000136 C9.659999999999968,3.5806669999999485 9.77800000000002,3.8473330000000487 9.77800000000002,4.157332999999994 C9.77800000000002,4.468666999999982 9.659999999999968,4.734000000000037 9.424667,4.9526670000000195 z" id="Shape" fill="#30dfaa"/>
        </g>
    </g></g></svg>