<?xml version="1.0" encoding="UTF-8"?>
<svg width="24px" height="24px" viewBox="0 0 24 24" version="1.1" xmlns="http://www.w3.org/2000/svg" xmlns:xlink="http://www.w3.org/1999/xlink">
    <!-- Generator: sketchtool 52.5 (67469) - http://www.bohemiancoding.com/sketch -->
    <title>8124147C-54EA-4C87-91E3-2F7B56CA3CC2</title>
    <desc>Created with sketchtool.</desc>
    <g id="Page-1" stroke="none" stroke-width="1" fill="none" fill-rule="evenodd">
        <g id="Mobile" transform="translate(-205.000000, -23.000000)" fill="#FFFFFF" fill-rule="nonzero">
            <path d="M228.461964,41.9828435 L224.755538,38.2676051 C224.017287,37.5306526 222.794728,37.5530431 222.030759,38.3190204 L220.163445,40.1901499 C220.045471,40.1249824 219.92336,40.0569124 219.794975,39.9846961 C218.615786,39.3298422 217.001865,38.432286 215.303549,36.7288781 C213.6002,35.0218767 212.703846,33.4018113 212.048473,32.2191905 C211.979316,32.0939003 211.913054,31.973102 211.84762,31.8583851 L213.100862,30.60417 L213.717002,29.9858735 C214.482144,29.2187905 214.503243,27.9938074 213.766715,27.2547126 L210.06029,23.5390595 C209.323762,22.8010014 208.100652,22.8233919 207.33551,23.5904748 L206.290912,24.6434517 L206.319458,24.6718545 C205.96919,25.1198033 205.676496,25.636444 205.458682,26.1935812 C205.257898,26.723905 205.132891,27.2299725 205.075731,27.7370765 C204.586322,31.8035836 206.440397,35.520066 211.472117,40.5632563 C218.427483,47.533898 224.032594,47.0073059 224.274403,46.9815983 C224.801045,46.918504 225.305762,46.7923845 225.818683,46.5927356 C226.369735,46.3769849 226.884863,46.0840421 227.331523,45.7337409 L227.354346,45.7540582 L228.412595,44.7154556 C229.176151,43.9485108 229.198147,42.7231131 228.461964,41.9828435 Z" id="Shape"></path>
        </g>
    </g>
</svg>