<svg xmlns="http://www.w3.org/2000/svg" width="11" height="11" style=""><rect id="backgroundrect" width="100%" height="100%" x="0" y="0" fill="none" stroke="none"/>
    
<g class="currentLayer" style=""><title>Layer 1</title><path fill="#f8355e" fill-rule="nonzero" d="M10.753 8.7L9.055 6.998c-.339-.338-.9-.328-1.25.023l-.855.858-.169-.094c-.54-.3-1.28-.712-2.059-1.493-.78-.782-1.191-1.525-1.491-2.067l-.093-.165.575-.575.282-.283c.351-.352.36-.913.023-1.252L2.32.247C1.982-.09 1.421-.08 1.07.271L.592.753l.013.013c-.16.206-.295.442-.395.698-.092.243-.15.475-.175.707C-.19 4.035.66 5.738 2.966 8.05c3.188 3.195 5.757 2.953 5.868 2.942a2.865 2.865 0 0 0 1.401-.572l.01.009.486-.476c.35-.352.36-.913.022-1.253z" id="svg_1" class="selected" fill-opacity="1"/></g></svg>